<?xml version="1.0" encoding="utf-8" ?>
<svg xmlns="http://www.w3.org/2000/svg" xmlns:xlink="http://www.w3.org/1999/xlink" width="1737" height="520">
	<path fill="#6F42BF" transform="scale(1 1)" d="M626.429 419.819L626.429 187.404L543.606 187.404L543.606 151.964L749.098 151.964L749.098 187.404L666.764 187.404L666.764 419.819L626.429 419.819ZM798.282 423.833Q769.793 423.833 746.982 412.379Q724.269 400.924 711.052 379.092Q697.836 357.261 697.836 325.541Q697.836 295.486 710.465 273.458Q723.094 251.43 744.632 239.39Q766.17 227.348 792.603 227.348Q820.505 227.348 840.868 238.117Q861.232 248.788 872.294 267.193Q883.455 285.5 883.455 308.898Q883.455 315.555 881.595 323.583Q879.833 331.611 876.896 336.604L736.507 336.604Q738.465 354.227 746.786 366.561Q755.108 378.897 769.107 385.162Q783.205 391.33 801.708 391.33Q820.113 391.33 834.309 385.75Q848.602 380.072 861.819 369.891L875.427 397.791Q859.763 410.812 840.281 417.371Q820.897 423.833 798.282 423.833ZM736.507 307.331L844.197 307.331Q844.589 306.352 844.686 305.471Q844.784 304.492 844.784 303.318Q844.784 290.102 839.106 280.214Q833.526 270.228 822.267 264.745Q811.107 259.262 793.876 259.262Q779.974 259.262 768.128 264.941Q756.38 270.62 748.157 281.388Q739.933 292.06 736.507 307.331ZM880.623 419.819L952.874 322.408L884.637 231.362L928.399 231.362L977.055 299.108L1025.81 231.362L1069.57 231.362L1001.33 322.408L1073.58 419.819L1029.82 419.819L977.055 348.059L924.385 419.819L880.623 419.819ZM1169.95 423.833Q1141.07 423.833 1118.65 411.595Q1096.33 399.358 1083.7 377.33Q1071.17 355.303 1071.17 325.541Q1071.17 295.878 1083.7 273.85Q1096.33 251.823 1118.65 239.585Q1141.07 227.348 1169.95 227.348Q1199.22 227.348 1221.34 239.585Q1243.57 251.823 1256.2 273.85Q1268.83 295.878 1268.83 325.541Q1268.83 355.303 1256.2 377.33Q1243.57 399.358 1221.34 411.595Q1199.22 423.833 1169.95 423.833ZM1169.95 390.743Q1188.06 390.743 1201.57 382.911Q1215.08 374.981 1222.62 360.296Q1230.16 345.611 1230.16 325.541Q1230.16 305.373 1222.62 290.884Q1215.08 276.297 1201.57 268.367Q1188.06 260.438 1169.95 260.438Q1151.93 260.438 1138.42 268.367Q1124.91 276.297 1117.38 290.884Q1109.84 305.373 1109.84 325.541Q1109.84 345.611 1117.38 360.296Q1124.91 374.981 1138.42 382.911Q1151.93 390.743 1169.95 390.743ZM1378.67 419.819L1487.14 151.964L1531.29 151.964L1639.76 419.819L1596.2 419.819L1574.36 364.115L1443.67 364.115L1422.23 419.819L1378.67 419.819ZM1456.3 330.632L1562.13 330.632L1509.26 194.452L1456.3 330.632ZM1673.47 419.819L1673.47 151.964L1713.71 151.964L1713.71 419.819L1673.47 419.819Z"/>
	<path fill="#3B0E74" transform="scale(1 1)" d="M276.626 5.03655C279.689 4.88916 282.747 5.39404 285.604 6.51833C291.308 8.75904 295.994 13.5226 298.396 19.1807C300.591 24.3556 300.677 30.6652 298.51 35.8679C295.598 42.8618 289.437 46.6978 282.779 49.4948C288.557 64.7807 292.85 80.7826 297.625 96.4087C319.181 98.2109 341.892 103.247 361.253 113.084C390.128 127.755 403.82 149.644 413.702 179.722C417.565 180.803 421.248 181.949 424.772 183.947C435.25 189.888 442.183 201.204 445.395 212.641C449.913 228.725 448.812 247.234 440.618 261.942C434.964 272.093 426.76 279.57 415.469 282.778C413.78 295.446 408.58 308.944 402.244 319.953C391.552 338.527 371.329 357.71 350.338 363.353C356.072 387.011 357.991 410.047 355.724 434.33C353.572 457.359 346.695 482.013 328.342 497.261C306.653 515.28 274.389 515.481 247.939 512.865C243.496 512.168 239.076 511.374 234.72 510.236C216.609 505.506 200.839 495.258 191.292 478.743C174.362 449.456 176.456 397.16 184.828 365.363C174.953 363.974 162.425 356.69 154.417 350.875C132.782 335.166 117.557 309.881 113.311 283.348C104.98 283.055 97.6324 279.851 91.6308 274.027C80.3833 263.113 75.8867 247.268 75.6299 231.918C75.3786 216.897 79.8952 201.368 90.4534 190.461C97.3076 183.382 105.522 180.166 115.274 180.033C118.409 163.204 129.32 144.183 141.118 132.003C170.415 101.754 218.37 95.2962 258.373 94.8176C261.893 79.8027 268.909 65.5658 272.507 50.6006C272.435 50.3644 272.467 50.0639 272.292 49.8919C271.106 48.7321 265.319 46.9912 262.965 45.0738C258.533 41.4623 255.744 35.4296 255.2 29.7793C254.61 23.74 256.45 17.7145 260.305 13.0561C264.493 8.08646 270.267 5.52695 276.626 5.03655Z"/>
	<path fill="#9F63ED" transform="scale(1 1)" d="M276.097 132.33C286.003 131.281 296.733 131.95 306.653 132.725C333.805 134.846 363.825 141.702 382.254 163.571C401.048 185.871 404.381 219.9 402.067 248.008C400.007 273.017 392.6 298.694 372.914 315.411C354.595 330.966 322.91 338.227 299.47 336.156C306.938 339.368 314.701 341.197 321.536 345.865C333.036 353.719 338.671 367.932 341.108 381.211C345.283 403.958 344.825 434.463 331.241 454.222C322.645 466.728 309.549 471.009 295.383 473.628C295.198 473.657 295.014 473.685 294.827 473.711C276.962 476.184 254.936 474.518 240.084 463.14C227.683 453.64 222.775 438.513 220.801 423.513C217.86 401.163 218.656 372.78 232.946 354.092C242.152 342.054 255.362 338.137 269.711 336.247C247.174 334.688 221.987 329.253 204.318 314.257C185.424 298.221 178.395 273.455 176.343 249.512C173.818 220.04 177.222 185.703 196.879 162.232C216.234 139.124 248.027 134.756 276.097 132.33Z"/>
	<path fill="#3B0E74" transform="scale(1 1)" d="M226.399 182.424C231.912 181.967 237.434 183.197 242.244 185.952C249.967 190.328 254.944 198.185 257.226 206.668C260.141 217.386 258.701 228.834 253.226 238.48C248.437 246.762 241.583 251.143 232.574 253.572C226.236 254.404 220.159 253.03 214.751 249.558C207.101 244.645 202.112 235.8 200.262 226.977C198.109 216.709 199.563 205.154 205.363 196.314C210.455 188.55 217.47 184.272 226.399 182.424Z"/>
	<path fill="#3B0E74" transform="scale(1 1)" d="M347.809 172.363C353.389 171.832 359.24 173.537 363.918 176.574C371.561 181.537 376.406 190.187 378.177 199.05C380.316 209.757 378.376 221.284 372.298 230.387C367.251 237.946 360.445 241.822 351.741 243.572C344.828 243.498 338.085 241.66 332.595 237.283C325.152 231.35 320.89 221.908 319.876 212.534C318.752 202.134 321.312 190.996 327.962 182.832C333.082 176.545 339.837 173.195 347.809 172.363Z"/>
	<path fill="#FEFEFE" transform="scale(1 1)" d="M337.993 267.184L342.062 266.792C341.659 273.199 340.468 279.112 337.098 284.677C330.016 296.368 316.377 303.498 303.499 306.562C286.802 310.534 269.219 309.14 254.412 299.95C247.013 294.299 243.422 288.517 240.659 279.684C252.775 279.1 264.996 276.82 277.012 275.168C297.315 272.324 317.644 269.662 337.993 267.184Z"/>
	<path fill="#3B0E74" transform="scale(1 1)" d="M284.706 409.901C292.147 408.297 299.46 413.106 301.004 420.62C302.55 428.132 297.737 435.479 290.279 436.991C282.884 438.491 275.676 433.688 274.145 426.239C272.612 418.79 277.33 411.491 284.706 409.901Z"/>
	<path fill="#3B0E74" transform="scale(1 1)" d="M285.019 368.953C292.399 367.541 299.532 372.381 301.017 379.806C302.504 387.233 297.79 394.482 290.445 396.068C285.617 397.11 280.605 395.455 277.325 391.732C274.044 388.009 273.001 382.796 274.593 378.081C276.186 373.368 280.168 369.88 285.019 368.953Z"/>
	<path fill="#9F63ED" transform="scale(1 1)" d="M272.478 20.8697C277.346 19.8565 282.112 22.9892 283.16 27.8886C284.206 32.7882 281.143 37.6234 276.295 38.7228C273.708 39.3093 270.997 38.7231 268.877 37.119C266.756 35.5149 265.438 33.054 265.272 30.3855C264.99 25.8462 268.062 21.789 272.478 20.8697Z"/>
</svg>
